<svg xmlns="http://www.w3.org/2000/svg" xmlns:xlink="http://www.w3.org/1999/xlink" id="Isolation_Mode" x="0" y="0" version="1.1" viewBox="0 0 680 500" xml:space="preserve" style="enable-background:new 0 0 680 500"><style type="text/css">.st0{fill:#eaebfb}.st1{clip-path:url(#XMLID_10_);fill:#dfe0f3}.st2{opacity:.3}.st3{fill:#f7974b}.st4{fill:#fff}.st5{fill:none;stroke:#e8e9f9;stroke-width:.8987;stroke-linecap:round;stroke-linejoin:round;stroke-miterlimit:10}.st6{fill:#e8e9f9}.st7{fill:#60b0e1}.st8{fill:#c5c9e6}.st9{fill:#3d415b}.st10{fill:none;stroke:#3d415b;stroke-width:2.4961;stroke-miterlimit:10}.st11{fill:#e3bc9a}.st12{fill:#d8ac89}.st13{fill:#7c6ef2}.st14{fill:#303348}.st15{fill:#282c3c}.st16{fill:#583bf5}.st17{fill:#ddb28d}.st18{fill:#93b7fa}.st19{fill:#a9c9fa}.st20{fill:#82a7e7}.st21{fill:#8eb6ec}.st22{fill:#ecf2f5}.st23{fill:#29323d}.st24{fill:#e37296}.st25{fill:#5dc4cb}.st26{fill:#46b9bc}.st27{fill:none;stroke:#3d415b;stroke-width:2;stroke-miterlimit:10}</style><g id="XMLID_28_"><path id="XMLID_205_" d="M458.2,201.2C369.8,147.8,328.1-16.3,191.7,81.8c-136.5,98.1-79.9,299.6,50.9,348.3 c130.8,48.7,299,21.2,346.4-69.3C669.8,206.1,517.5,237.1,458.2,201.2z" class="st0"/><g id="XMLID_30_"><defs><path id="XMLID_203_" d="M458.2,201.2C369.8,147.8,328.1-16.3,191.7,81.8c-136.5,98.1-79.9,299.6,50.9,348.3 c130.8,48.7,299,21.2,346.4-69.3C669.8,206.1,517.5,237.1,458.2,201.2z"/></defs><clipPath id="XMLID_10_"><use xlink:href="#XMLID_203_" style="overflow:visible"/></clipPath><path id="XMLID_31_" d="M99.7,391.1c0,0,75.4-75.6,201.3-39.7c125.9,35.9,200,5.1,184.4-184.9 c0,0,177,24.7,154.3,150.4C612.1,469.5,256.7,527.7,99.7,391.1z" class="st1"/></g><g id="XMLID_32_"><g id="XMLID_33_" class="st2"><g id="XMLID_97_"><path id="XMLID_98_" d="M264.8,80.5v73.7c0,6.4-5.2,11.5-11.5,11.5H96.1c-6.4,0-11.5-5.1-11.5-11.5V80.5 c0-6.4,5.2-11.5,11.5-11.5h157.2C259.6,69,264.8,74.2,264.8,80.5z" class="st3"/></g></g><g id="XMLID_34_"><g id="XMLID_143_"><path id="XMLID_153_" d="M264.8,80.5v6.4H84.5v-6.4c0-6.4,5.2-11.5,11.5-11.5h157.2C259.6,69,264.8,74.2,264.8,80.5 z" class="st3"/><g id="XMLID_144_"><circle id="XMLID_151_" cx="94.7" cy="78.8" r="2.4" class="st3"/><circle id="XMLID_150_" cx="104.4" cy="78.8" r="2.4" class="st3"/><circle id="XMLID_146_" cx="114" cy="78.8" r="2.4" class="st3"/></g></g></g><path id="XMLID_193_" d="M146.5,131.1h-38.8c-0.5,0-0.8-0.4-0.8-0.8V98.4c0-0.5,0.4-0.8,0.8-0.8h38.8 c0.5,0,0.8,0.4,0.8,0.8v31.9C147.4,130.8,147,131.1,146.5,131.1z" class="st4"/><g id="XMLID_36_"><path id="XMLID_192_" d="M239.8,146.8H106.9c-1.4,0-2.5-1.1-2.5-2.5l0,0c0-1.4,1.1-2.5,2.5-2.5h132.9 c1.4,0,2.5,1.1,2.5,2.5l0,0C242.4,145.7,241.2,146.8,239.8,146.8z" class="st4"/></g><g id="XMLID_37_"><path id="XMLID_190_" d="M239.8,127.6h-80.6c-1.4,0-2.5-1.1-2.5-2.5l0,0c0-1.4,1.1-2.5,2.5-2.5h80.6 c1.4,0,2.5,1.1,2.5,2.5l0,0C242.4,126.5,241.2,127.6,239.8,127.6z" class="st4"/></g><g id="XMLID_38_"><path id="XMLID_188_" d="M209.1,109.6h-49.9c-1.4,0-2.5-1.1-2.5-2.5l0,0c0-1.4,1.1-2.5,2.5-2.5h49.9 c1.4,0,2.5,1.1,2.5,2.5l0,0C211.7,108.5,210.5,109.6,209.1,109.6z" class="st4"/></g></g><path id="XMLID_185_" d="M10.4,221.8c0,0,2.9-3.4,4.7-4.9c3.2-2.8,7-7.7,18.8-4.1c0.9,0.3,1.8,0.7,2.7,1 c1,0.4,4.3,0.5,7.6-2.2c5.3-4.2,7.3-7.4,14.6-7.5c8.4-0.1,9.7,10.4,16.3,13.1c4.2,1.7,15.2,3.4,17.4,4.2L10.4,221.8z" class="st5"/><path id="XMLID_184_" d="M457.3,71c0,0,5.8-6.6,9.3-9.7c6.4-5.5,13.7-15.2,37.1-8c1.8,0.6,3.6,1.3,5.3,2 c2.1,0.9,8.4,0.9,15-4.3c10.4-8.2,14.4-14.5,28.7-14.7c16.6-0.2,19.2,20.4,32,25.7c8.2,3.4,29.8,6.7,34.3,8.2L457.3,71z" class="st6"/><g id="XMLID_39_"><path id="XMLID_40_" d="M329.6,132.7l-1.2-3.4l-1.2,3.4c-1,2.9-3.4,5.3-6.6,6.8l0,0l0,0c3.2,1.4,5.6,3.9,6.6,6.8 l1.2,3.4l1.2-3.4c1-2.9,3.4-5.3,6.6-6.8l0,0l0,0C333,138,330.6,135.6,329.6,132.7z" class="st4"/><path id="XMLID_41_" d="M221.7,328.2l-1.2-3.4l-1.2,3.4c-1,2.9-3.4,5.3-6.6,6.8l0,0l0,0c3.2,1.4,5.6,3.9,6.6,6.8 l1.2,3.4l1.2-3.4c1-2.9,3.4-5.3,6.6-6.8l0,0l0,0C225.1,333.6,222.7,331.1,221.7,328.2z" class="st4"/><path id="XMLID_42_" d="M545.2,307.6l-0.8-2.3l-0.8,2.3c-0.7,1.9-2.2,3.5-4.4,4.5l0,0l0,0c2.1,0.9,3.7,2.6,4.4,4.5 l0.8,2.3l0.8-2.3c0.7-1.9,2.2-3.5,4.4-4.5l0,0l0,0C547.4,311.1,545.9,309.5,545.2,307.6z" class="st4"/><path id="XMLID_43_" d="M169.5,194.1l-0.8-2.3l-0.8,2.3c-0.7,1.9-2.2,3.5-4.4,4.5l0,0l0,0c2.1,0.9,3.7,2.6,4.4,4.5 l0.8,2.3l0.8-2.3c0.7-1.9,2.2-3.5,4.4-4.5l0,0l0,0C171.8,197.6,170.2,196,169.5,194.1z" class="st4"/></g><g id="XMLID_44_"><path id="XMLID_45_" d="M425.2,9.2h-74.8c-4.1,0-7.4,3.3-7.4,7.4v40.4c0,4.1,3.3,7.4,7.4,7.4h4v18.5l18.5-18.5h52.3 c4.1,0,7.4-3.3,7.4-7.4V16.5C432.6,12.4,429.2,9.2,425.2,9.2z" class="st7"/><g id="XMLID_46_"><path id="XMLID_177_" d="M360.9,48.7h17.6c1.4,0,2.5,1.1,2.5,2.5l0,0c0,1.4-1.1,2.5-2.5,2.5h-17.6 c-1.4,0-2.5-1.1-2.5-2.5l0,0C358.4,49.8,359.5,48.7,360.9,48.7z" class="st4"/></g><g id="XMLID_47_"><path id="XMLID_175_" d="M360.9,36.4h32.5c1.4,0,2.5,1.1,2.5,2.5l0,0c0,1.4-1.1,2.5-2.5,2.5h-32.5 c-1.4,0-2.5-1.1-2.5-2.5l0,0C358.4,37.5,359.5,36.4,360.9,36.4z" class="st4"/></g><g id="XMLID_48_"><path id="XMLID_173_" d="M360.9,24.4h55.9c1.4,0,2.5,1.1,2.5,2.5l0,0c0,1.4-1.1,2.5-2.5,2.5h-55.9 c-1.4,0-2.5-1.1-2.5-2.5l0,0C358.4,25.5,359.5,24.4,360.9,24.4z" class="st4"/></g></g><g id="XMLID_49_"><path id="XMLID_50_" d="M378.8,355.9h86.6c17.4,0,32-13.1,33.9-30.4l12.5-130h-86.6l-1.8,75.4L378.8,355.9z" class="st8"/><g id="XMLID_53_"><path id="XMLID_19_" d="M378.8,355.4c0,0,4.2-0.1,11.5-0.1c3.7,0,8.1-0.1,13.2-0.2c5.1,0,10.8-0.1,17.1-0.2 c6.3,0,13-0.1,20.2-0.2c7.2,0,14.7-0.1,22.6-0.1l1.5,0l0.7,0l0.7,0l1.5-0.1c0.5,0,1,0,1.4-0.1c0.9-0.2,1.9-0.2,2.8-0.4 c0.9-0.2,1.9-0.4,2.8-0.7c3.7-1.1,7.3-2.9,10.4-5.3c6.3-4.7,10.9-11.9,12.4-19.8c0.1-1,0.3-2,0.5-3l0.3-3.1 c0.2-2.1,0.4-4.1,0.6-6.2c0.4-4.1,0.8-8.3,1.2-12.3c0.8-8.2,1.6-16.2,2.3-24c1.6-15.6,3-30.1,4.3-42.6 c2.6-24.9,4.3-41.5,4.3-41.5c0-0.4,0.4-0.7,0.9-0.7c0.4,0,0.7,0.4,0.7,0.8c0,0-1.5,16.6-3.7,41.6c-1.1,12.5-2.5,27-3.9,42.6 c-0.7,7.8-1.5,15.8-2.3,24c-0.4,4.1-0.8,8.2-1.2,12.3c-0.2,2.1-0.4,4.1-0.6,6.2l-0.3,3.1c-0.1,1.1-0.3,2.1-0.5,3.2 c-1.6,8.5-6.6,16.3-13.4,21.4c-3.4,2.6-7.3,4.5-11.3,5.6c-1,0.3-2,0.5-3,0.7c-1,0.2-2.1,0.3-3.1,0.5c-1,0.2-2,0.1-3,0.2l-0.7,0 l-0.8,0l-1.5,0c-7.8,0-15.4-0.1-22.6-0.1c-7.2-0.1-14-0.1-20.2-0.2c-6.3-0.1-12-0.1-17.1-0.2c-5.1-0.1-9.5-0.1-13.2-0.2 c-7.3-0.1-11.5-0.1-11.5-0.1c-0.3,0-0.5-0.3-0.5-0.6C378.3,355.6,378.5,355.4,378.8,355.4z" class="st9"/></g><line id="XMLID_54_" x1="428.3" x2="428.3" y1="358.4" y2="450.2" class="st10"/></g><g id="XMLID_55_"><rect id="XMLID_164_" width="279.2" height="4.3" x="165.4" y="272.4" class="st9"/><polygon id="XMLID_56_" points="411.7 467.6 414.7 478.2 400.3 482.6 395.8 469.4" class="st11"/><polygon id="XMLID_57_" points="324.6 459.9 324.6 468.4 337.4 468.4 338.8 459.9" class="st11"/><g id="XMLID_58_"><g id="XMLID_59_"><path id="XMLID_60_" d="M422.8,213.1l-19.3,47.6l-0.4,1.1c-1.1,2.8-3.9,4.5-6.8,4.5l-54.9-0.4c-2.2,0-4-1.8-4-4.1 c0-2,1.5-3.7,3.4-4l54.4-7.9l-7.2,5.6l13-49.7c1.6-6.2,7.9-9.9,14.1-8.2c6.2,1.6,9.9,7.9,8.2,14.1 C423.1,212.1,422.9,212.6,422.8,213.1z" class="st12"/><path id="XMLID_61_" d="M347.3,257l-18.8-0.4c-4.6,0-8.4,4.2-8.4,9.4v0h27.4L347.3,257z" class="st12"/></g><g id="XMLID_62_"><path id="XMLID_158_" d="M392.4,218.9l30,7.3l4.9-26.8c1.3-7.2-3.7-14-11.1-15.1l0,0c-6.2-0.9-12.2,2.6-14.3,8.4 L392.4,218.9z" class="st13"/></g></g><path id="XMLID_63_" d="M423.4,270.9l-92.6,47c-8.6,4.4-13.8,13.4-13.2,23l7,118.9h14.2L358,332.6l72.1-50.6 L423.4,270.9z" class="st14"/><path id="XMLID_154_" d="M407.1,108.5c0,0,25.7-8.7,39.2,15.6c0.8,1.4,1.6,2.8,2.7,4c2.7,3.2,8.5,9.2,14.8,11.1 c25,7.7,40.9,55-9,59.2c-62.4,5.3-80.1-7-71.1-31.9c6.4-17.7,0.7-30.3,0.7-30.3L407.1,108.5z" class="st15"/><path id="XMLID_64_" d="M427.6,172l-13.3,5.9c-7.9,3.5-13,11.4-12.9,20.1c0.2,17.5,4.2,60.9,18.9,77.5h45 c7-30.7,3-78,3-78c0.4-11.6-8.1-21.6-19.6-23L427.6,172z" class="st16"/><g id="XMLID_65_"><g id="XMLID_66_"><g id="XMLID_67_"><path id="XMLID_152_" d="M428.9,186.4L428.9,186.4c-4.7,0.5-8.9-2.8-9.5-7.5l-3.7-28.6l17.1-2l3.6,28.4 C437,181.5,433.6,185.8,428.9,186.4z" class="st17"/><path id="XMLID_11_" d="M414.7,171.7l-0.7,0.1c-11.4,1.5-21.9-6.6-23.3-18l-3.2-24.9l42-5.5l3.2,24.9 C434.2,159.7,426.2,170.2,414.7,171.7z" class="st11"/></g><path id="XMLID_149_" d="M434.1,138.7l-3.6,7.4c0,0-4.8,4.1-6.1-6.3c-1.1-8.8-7.5-7.3-7.5-7.3s-21.9,16.6-34.7,5.2 c-10.1-9,6.3-25.4,25-29.3l24.6,10.8L434.1,138.7z" class="st15"/><circle id="XMLID_148_" cx="434.9" cy="145.6" r="6.9" class="st11"/><circle id="XMLID_147_" cx="434.9" cy="148.7" r="1.3" class="st4"/></g><path id="XMLID_145_" d="M398.2,159.6l11.8-2.5c0,0,0.6,5.1-5.9,6C399,163.9,398.2,159.6,398.2,159.6z" class="st4"/></g><path id="XMLID_68_" d="M465.4,275.5h-45l-72,43.5c-8.5,5.1-11.9,15.8-7.9,24.8l55.3,125.6l16-1.9L382,346.4 c24.9-1.1,71.2-4.8,83.3-18.3C485.8,305.3,465.4,275.5,465.4,275.5z" class="st9"/><g id="XMLID_69_"><path id="XMLID_70_" d="M311.9,196.7l25.7,69h-83.4l-23.8-65c-0.7-1.9,0.7-4,2.8-4H311.9z" class="st18"/><path id="XMLID_71_" d="M311.9,196.7h4c2.1,0,4.1,1.3,4.8,3.3l24.2,65.7h-7.3L311.9,196.7z" class="st19"/><path id="XMLID_140_" d="M256.7,272.4h80.9v-6.6h-83.2v4.3C254.3,271.3,255.4,272.4,256.7,272.4z" class="st20"/><path id="XMLID_72_" d="M337.6,272.4h51.5c1.8,0,3.3-1.5,3.3-3.3l0,0c0-1.8-1.5-3.3-3.3-3.3h-51.5V272.4z" class="st21"/><ellipse id="XMLID_138_" cx="283.9" cy="233.4" class="st22" rx="7.5" ry="9.1" transform="matrix(0.9493 -0.3143 0.3143 0.9493 -58.968 101.0598)"/></g><g id="XMLID_73_"><g id="XMLID_74_"><path id="XMLID_75_" d="M458,211.8l-19.3,48.5l-0.4,1.1c-1.1,2.9-3.9,4.6-6.9,4.6l-55-0.4c-2.2,0-4-1.8-4-4.1 c0-2,1.5-3.7,3.5-4l54.4-8l-7.3,5.7l13-50.6c1.6-6.2,7.9-10,14.2-8.4c6.2,1.6,10,7.9,8.4,14.2 C458.3,210.8,458.1,211.3,458,211.8z" class="st11"/><path id="XMLID_76_" d="M382.4,256.6l-18.8-0.4c-4.6,0-8.4,4.3-8.4,9.5l0,0h27.4L382.4,256.6z" class="st11"/></g><g id="XMLID_77_"><path id="XMLID_133_" d="M427.5,217.8l30,7.5l4.9-27.3c1.3-7.3-3.7-14.3-11.1-15.4l0,0c-6.2-0.9-12.2,2.7-14.3,8.6 L427.5,217.8z" class="st13"/></g></g><path id="XMLID_130_" d="M390.9,472.4l-7,6.9l-15.8,3.8c-1.6,0.4-2.9,1.6-3.5,3.2l-0.8,2.3c-0.4,1.1,0.5,2.3,1.7,2.3 l50.7-1.2c1.7,0,2.9-1.5,2.8-3.1l-4-14.4l-7.7,1.8c-2.6,0.9-5.4,0.6-7.7-0.8l-2.7-1.6C395,470.5,392.5,470.8,390.9,472.4z" class="st23"/><path id="XMLID_129_" d="M318.1,462.4l-7,6.9l-15.8,3.8c-1.6,0.4-2.9,1.6-3.5,3.2l-0.8,2.3c-0.4,1.1,0.5,2.3,1.7,2.3 l45.9-1c1.7,0,2.9-1.5,2.8-3.1l-1.2-14.7l-5.7,1.9c-2.6,0.9-5.4,0.6-7.7-0.8l-2.7-1.6C322.2,460.5,319.8,460.8,318.1,462.4z" class="st23"/></g><g id="XMLID_78_"><path id="XMLID_125_" d="M528.1,165.3h138.5c1.7,0,3.1-1.4,3.1-3.1V116c0-1.7-1.4-3.1-3.1-3.1H528.1 c-1.7,0-3.1,1.4-3.1,3.1v46.2C525,163.9,526.3,165.3,528.1,165.3z" class="st24"/><g id="XMLID_79_"><path id="XMLID_124_" d="M623.2,154.1h29.7c0.5,0,1-0.4,1-1V125c0-0.5-0.4-1-1-1h-29.7c-0.5,0-1,0.4-1,1v28.1 C622.2,153.7,622.6,154.1,623.2,154.1z" class="st4"/><g id="XMLID_80_"><path id="XMLID_122_" d="M542.9,130.4h68.8c1.2,0,2.2-1,2.2-2.2l0,0c0-1.2-1-2.2-2.2-2.2h-68.8 c-1.2,0-2.2,1-2.2,2.2l0,0C540.7,129.4,541.7,130.4,542.9,130.4z" class="st4"/><g id="XMLID_81_"><path id="XMLID_121_" d="M586.3,141.2H613c0.5,0,0.8-0.4,0.8-0.8v-2.6c0-0.5-0.4-0.8-0.8-0.8h-26.6 c-0.5,0-0.8,0.4-0.8,0.8v2.6C585.5,140.9,585.9,141.2,586.3,141.2z" class="st4"/><path id="XMLID_120_" d="M541.6,141.2h31.3c0.5,0,0.8-0.4,0.8-0.8v-2.6c0-0.5-0.4-0.8-0.8-0.8h-31.3 c-0.5,0-0.8,0.4-0.8,0.8v2.6C540.7,140.9,541.1,141.2,541.6,141.2z" class="st4"/></g><path id="XMLID_118_" d="M560.1,152.1h51.6c1.2,0,2.2-1,2.2-2.2l0,0c0-1.2-1-2.2-2.2-2.2h-51.6 c-1.2,0-2.2,1-2.2,2.2l0,0C557.9,151.2,558.9,152.1,560.1,152.1z" class="st4"/></g></g></g><g id="XMLID_82_"><path id="XMLID_114_" d="M212.2,251.5c0,0,21.2,0.1,16.8-21.8C229,229.7,206.7,231.9,212.2,251.5z" class="st25"/><path id="XMLID_113_" d="M209.5,250.3c0,0-21.5,0.1-17-22C192.5,228.2,215.1,230.5,209.5,250.3z" class="st25"/><path id="XMLID_112_" d="M210.5,250.4c0,0-15.7-15.8,2.8-29.7C213.3,220.7,228.2,239,210.5,250.4z" class="st26"/><polygon id="XMLID_111_" points="227.7 248.5 193.4 248.5 198.8 272.4 221.8 272.4" class="st9"/></g><line id="XMLID_29_" x1="296" x2="296" y1="276.7" y2="444.9" class="st27"/></g></svg>